<svg width="100" height="100" viewBox="0 0 100 100" fill="none" xmlns="http://www.w3.org/2000/svg">
<g id="Group 194">
<circle id="Ellipse 11" cx="50" cy="50" r="49.5" fill="white" stroke="black"/>
<rect id="Rectangle 277" x="25.5" y="26.5" width="49" height="49" rx="4.5" fill="white" stroke="black"/>
<rect id="Rectangle 278" x="33.5" y="34.5" width="34" height="34" rx="4.5" fill="white" stroke="black"/>
<line id="Line 37" x1="34.5" y1="16" x2="34.5" y2="26" stroke="black"/>
<line id="Line 42" x1="35.5" y1="76" x2="35.5" y2="86" stroke="black"/>
<line id="Line 47" x1="25" y1="36.5" x2="15" y2="36.5" stroke="black"/>
<line id="Line 52" x1="85" y1="36.5" x2="75" y2="36.5" stroke="black"/>
<line id="Line 38" x1="41.5" y1="16" x2="41.5" y2="26" stroke="black"/>
<line id="Line 43" x1="42.5" y1="76" x2="42.5" y2="86" stroke="black"/>
<line id="Line 48" x1="25" y1="43.5" x2="15" y2="43.5" stroke="black"/>
<line id="Line 53" x1="85" y1="43.5" x2="75" y2="43.5" stroke="black"/>
<line id="Line 39" x1="48.5" y1="16" x2="48.5" y2="26" stroke="black"/>
<line id="Line 44" x1="49.5" y1="76" x2="49.5" y2="86" stroke="black"/>
<line id="Line 49" x1="25" y1="50.5" x2="15" y2="50.5" stroke="black"/>
<line id="Line 54" x1="85" y1="50.5" x2="75" y2="50.5" stroke="black"/>
<line id="Line 40" x1="55.5" y1="16" x2="55.5" y2="26" stroke="black"/>
<line id="Line 45" x1="56.5" y1="76" x2="56.5" y2="86" stroke="black"/>
<line id="Line 50" x1="25" y1="57.5" x2="15" y2="57.5" stroke="black"/>
<line id="Line 55" x1="85" y1="57.5" x2="75" y2="57.5" stroke="black"/>
<line id="Line 41" x1="62.5" y1="16" x2="62.5" y2="26" stroke="black"/>
<line id="Line 46" x1="63.5" y1="76" x2="63.5" y2="86" stroke="black"/>
<line id="Line 51" x1="25" y1="64.5" x2="15" y2="64.5" stroke="black"/>
<line id="Line 56" x1="85" y1="64.5" x2="75" y2="64.5" stroke="black"/>
<path id="Subtract" fill-rule="evenodd" clip-rule="evenodd" d="M45.6431 42L41.2123 55.2308L39.0518 61.6824L40.9482 62.3176L42.8802 56.5484H50.5151L52.4471 62.3176L54.3436 61.6824L52.183 55.2308L47.7523 42H45.6431ZM46.6977 45.1491L49.8453 54.5484H43.55L46.6977 45.1491ZM57 42V62H59V42H57Z" fill="black"/>
</g>
</svg>
