<svg width="100" height="100" viewBox="0 0 100 100" fill="none" xmlns="http://www.w3.org/2000/svg">
<g id="Frame 190">
<g id="Group 23">
<circle id="Ellipse 11" cx="50" cy="50" r="49.5" fill="white" stroke="black"/>
<path id="Vector" d="M68.5027 67.3617C67.7115 67.243 66.8807 66.9265 66.0104 66.4122C65.1796 65.8979 64.3685 65.2847 63.5773 64.5726C63.8938 63.4253 64.2103 62.2978 64.5268 61.1901C64.8433 60.0428 65.1598 58.9153 65.4763 57.8076C64.8037 57.8867 64.1312 57.946 63.4586 57.9856C62.7861 58.0251 62.1135 58.0449 61.441 58.0449C60.0168 58.0449 58.8695 57.7087 57.9991 57.0361C57.1683 56.324 56.7529 55.3547 56.7529 54.1283C56.7529 53.9305 56.7925 53.6338 56.8716 53.2382C56.9903 52.803 57.0892 52.4865 57.1683 52.2887C57.92 52.4074 58.6321 52.4865 59.3047 52.5261C60.0168 52.5656 60.9267 52.5854 62.0344 52.5854C62.9443 52.5854 63.8345 52.5854 64.7048 52.5854C65.6147 52.5854 66.4851 52.5459 67.3159 52.4667C68.2258 49.9744 69.1357 47.7589 70.0456 45.8204C70.9951 43.8423 71.9248 42.2796 72.8347 41.1323C73.3095 41.2114 73.9227 41.4093 74.6744 41.7257C75.426 42.0422 76.1579 42.3983 76.87 42.7939C77.6217 43.15 78.2942 43.5258 78.8877 43.9214C79.4811 44.317 79.8569 44.6335 80.0152 44.8709C79.1053 45.8599 78.2547 46.9479 77.4635 48.1347C76.6722 49.282 75.881 50.548 75.0898 51.9327C76.514 51.814 77.7404 51.6953 78.769 51.5766C79.8371 51.4579 80.6482 51.3986 81.202 51.3986C82.0724 51.3986 82.8438 51.8535 83.5164 52.7634C84.1889 53.6734 84.6834 54.9789 84.9999 56.6801C83.8527 56.5614 82.9032 56.4822 82.1515 56.4427C81.4394 56.4031 80.8064 56.3833 80.2526 56.3833C78.8283 56.3833 77.4634 56.4427 76.1579 56.5614C74.8919 56.6405 73.6853 56.7592 72.538 56.9174C71.7864 58.579 71.0742 60.2802 70.4017 62.0209C69.7291 63.7616 69.0962 65.5419 68.5027 67.3617Z" fill="#3C8FDD"/>
<path id="Vector_2" d="M20.0441 74.1861C18.1452 73.6322 16.8198 73.0784 16.0682 72.5245C15.3561 71.9706 15 71.2783 15 70.4475C15 69.8145 15.178 68.9244 15.5341 67.7771C15.8901 66.6298 16.4044 65.2847 17.077 63.7418C17.7891 62.1593 18.6199 60.4186 19.5694 58.5197C20.5584 56.6207 21.6661 54.5833 22.8925 52.4074C21.8639 52.3678 20.9342 52.3481 20.1035 52.3481C19.3122 52.3085 18.6595 52.2887 18.1452 52.2887C18.3825 51.6953 19.0551 51.181 20.1628 50.7458C21.2705 50.3106 22.7343 49.9348 24.5541 49.6183C26.097 47.0468 27.7388 44.594 29.4796 42.2598C31.2598 39.9257 33.0401 37.7894 34.8204 35.8509C36.6007 33.8728 38.3809 32.1518 40.1612 30.6881C41.9415 29.1847 43.6426 27.9979 45.2647 27.1275C45.3042 26.8506 45.324 26.6132 45.324 26.4154C45.3636 26.2176 45.3833 26.0791 45.3833 26C45.9372 26 46.6691 26.1385 47.579 26.4154C48.5285 26.6923 49.4384 27.0286 50.3088 27.4242C51.2187 27.8198 52.0099 28.2352 52.6825 28.6704C53.3946 29.066 53.7902 29.4023 53.8693 29.6792C52.5638 31.9738 51.278 35.4157 50.0121 40.0048C48.7461 44.5544 47.6977 50.0139 46.8669 56.3833C46.6691 57.9658 46.4911 59.7659 46.3328 61.7835C46.2141 63.8012 46.1548 66.0562 46.1548 68.5486C46.1548 69.4189 46.1548 70.309 46.1548 71.219C46.1548 72.1289 46.1944 73.0784 46.2735 74.0674C46.1944 74.107 46.1152 74.1267 46.0361 74.1267C45.957 74.1267 45.7987 74.1267 45.5614 74.1267C45.0075 74.1267 44.3547 74.0278 43.6031 73.83C42.891 73.6718 42.1789 73.4542 41.4667 73.1773C40.7942 72.9399 40.2008 72.663 39.6865 72.3465C39.2117 72.03 38.915 71.753 38.7963 71.5157C38.7568 71.0014 38.737 70.4871 38.737 69.9728C38.737 69.498 38.737 68.9837 38.737 68.4299C38.737 65.977 38.8161 63.4847 38.9744 60.9527C39.1722 58.4208 39.4887 55.8097 39.9238 53.1195C39.37 53.0799 38.6381 53.0404 37.7282 53.0008C36.8182 52.9217 35.7896 52.8624 34.6424 52.8228C33.5346 52.7832 32.328 52.7437 31.0225 52.7041C29.7565 52.625 28.5103 52.5656 27.2839 52.5261C26.3344 54.3064 25.4443 56.0866 24.6135 57.8669C23.7827 59.6076 23.0706 61.3681 22.4772 63.1484C21.8046 65.0473 21.2507 66.9463 20.8156 68.8453C20.4199 70.7442 20.1628 72.5245 20.0441 74.1861ZM42.9503 38.5213C43.1085 37.9674 43.2866 37.2157 43.4844 36.2662C43.7218 35.2772 43.9393 34.2486 44.1372 33.1804C43.1481 33.5365 42.0404 34.1893 40.814 35.1387C39.6271 36.0882 38.3809 37.2751 37.0754 38.6993C35.8094 40.0839 34.5039 41.6664 33.1588 43.4467C31.8533 45.1874 30.5873 47.0468 29.3609 49.0249C32.6841 48.7479 36.4622 48.5699 40.6953 48.4908C41.0118 46.8292 41.3481 45.1874 41.7041 43.5654C42.0997 41.9038 42.5151 40.2224 42.9503 38.5213Z" fill="#3C8FDD"/>
</g>
</g>
</svg>
