<svg width="100" height="100" viewBox="0 0 100 100" fill="none" xmlns="http://www.w3.org/2000/svg">
<g id="Group 196">
<circle id="Ellipse 8" cx="50" cy="50" r="49.5" fill="white" stroke="black"/>
<path id="Vector" d="M77.0703 24.3477C66.4531 26.2379 54.2188 31.1656 44.3164 36.4062C39.1016 39.1719 34.5313 42.0078 31.1785 44.5156C29.5016 45.7812 28.1281 46.9531 27.1403 47.9609C26.1524 48.9805 25.5723 49.8711 25.4235 50.3398C24.3641 53.7031 25.0227 57.1016 25.6262 60.2656C26.7453 66.1719 25.2477 70.6836 22.9332 75.0664C25.891 74.3984 28.2489 72.7461 29.6129 69.5586C30.6055 67.2383 30.6828 65.2227 30.9524 62.8086C31.2219 60.3945 31.7082 57.6289 33.5821 54.2305L33.6055 54.1836L33.6289 54.1367C34.6602 52.6602 36.6992 51.5352 39.4883 50.2227C42.2657 48.9102 45.7696 47.5273 49.5664 46.1094C57.043 43.3203 65.6446 40.4023 71.8438 37.7539C74.1875 34.2266 75.8281 29.0539 77.0703 24.3477ZM70.625 40.543C64.5664 43.0039 56.961 45.5937 50.293 48.0781C46.5196 49.4844 43.0508 50.8555 40.3789 52.1211C37.7305 53.375 35.8672 54.6523 35.3867 55.3086C34.5899 56.75 34.086 58.0273 33.7461 59.2109C43.5196 58.4492 56.6328 55.4844 65.5391 51.4062C68.75 47.9258 69.8633 44.4102 70.625 40.543ZM63.8281 54.4648C54.5703 58.2383 42.5 60.7109 33.2656 61.332C33.1602 61.918 33.0899 62.4805 33.0313 63.043C32.9844 63.4531 32.9492 63.875 32.9024 64.2852C41.3867 65.1641 48.875 64.7539 57.0664 63.5234C60.8867 60.8867 62.9024 57.7109 63.8281 54.4648ZM54.6407 65.9727C47.3399 66.9219 40.3906 67.168 32.6563 66.3711C32.5742 66.8984 32.4688 67.4258 32.3399 67.9648C36.5469 70.2148 43.836 70.9883 48.8281 70.8477C52.3672 69.3945 53.6914 67.9414 54.6407 65.9727ZM31.693 70.0039C31.5582 70.25 31.325 70.7891 31.1996 71.0469C32.8438 73.4141 36.9102 74.8203 41.5625 75.6523C44.0469 74.7148 44.8789 73.8359 45.8399 72.957C41.1875 72.8281 35.6797 72.0547 31.6953 70.0039H31.693Z" fill="black"/>
</g>
</svg>
