<svg width="100" height="100" viewBox="0 0 100 100" fill="none" xmlns="http://www.w3.org/2000/svg">
<g id="Group 198">
<circle id="Ellipse 8" cx="50" cy="50" r="49.5" fill="white" stroke="black"/>
<path id="Vector" d="M73.093 33.2211L50.593 25.7211C50.2081 25.5928 49.7919 25.5928 49.407 25.7211L26.907 33.2211C26.5337 33.3456 26.209 33.5843 25.9789 33.9036C25.7488 34.2229 25.625 34.6065 25.625 35V53.75C25.625 54.2473 25.8225 54.7242 26.1742 55.0758C26.5258 55.4275 27.0027 55.625 27.5 55.625C27.9973 55.625 28.4742 55.4275 28.8258 55.0758C29.1775 54.7242 29.375 54.2473 29.375 53.75V37.6016L37.2477 40.2242C35.156 43.6035 34.4909 47.6746 35.3983 51.5439C36.3057 55.4131 38.7115 58.764 42.0875 60.861C37.8687 62.5156 34.2219 65.5086 31.5547 69.6008C31.416 69.807 31.3196 70.0386 31.2712 70.2824C31.2228 70.5261 31.2234 70.777 31.2728 71.0205C31.3223 71.2641 31.4196 71.4953 31.5592 71.7009C31.6988 71.9064 31.8779 72.0822 32.086 72.218C32.2941 72.3537 32.5272 72.4467 32.7716 72.4916C33.016 72.5365 33.2669 72.5324 33.5096 72.4795C33.7524 72.4266 33.9823 72.3259 34.1858 72.1834C34.3894 72.0409 34.5626 71.8593 34.6953 71.6492C38.2273 66.2305 43.8055 63.125 50 63.125C56.1945 63.125 61.7727 66.2305 65.3047 71.6492C65.5797 72.058 66.0045 72.342 66.4873 72.4401C66.9701 72.5381 67.472 72.4421 67.8847 72.173C68.2973 71.9039 68.5874 71.4832 68.6923 71.0018C68.7972 70.5205 68.7085 70.0172 68.4453 69.6008C65.7781 65.5086 62.1172 62.5156 57.9125 60.861C61.2852 58.7641 63.6888 55.4153 64.596 51.549C65.5033 47.6826 64.8403 43.6142 62.7523 40.236L73.093 36.7906C73.4664 36.6663 73.7912 36.4275 74.0214 36.1082C74.2516 35.7889 74.3754 35.4053 74.3754 35.0117C74.3754 34.6181 74.2516 34.2345 74.0214 33.9152C73.7912 33.596 73.4664 33.3572 73.093 33.2328V33.2211ZM61.25 48.125C61.2505 49.9036 60.8293 51.6569 60.021 53.2412C59.2126 54.8255 58.0402 56.1955 56.5998 57.2389C55.1595 58.2823 53.4923 58.9693 51.735 59.2436C49.9777 59.5179 48.1804 59.3716 46.4906 58.8168C44.8008 58.262 43.2666 57.3144 42.0139 56.0519C40.7612 54.7893 39.8257 53.2477 39.2842 51.5536C38.7426 49.8595 38.6105 48.0611 38.8986 46.306C39.1866 44.5509 39.8867 42.8892 40.9414 41.457L49.407 44.2695C49.7919 44.3979 50.2081 44.3979 50.593 44.2695L59.0586 41.457C60.4831 43.3883 61.2511 45.7252 61.25 48.125ZM50 40.5242L33.4297 35L50 29.4758L66.5703 35L50 40.5242Z" fill="black"/>
</g>
</svg>
