<svg width="100" height="100" viewBox="0 0 100 100" fill="none" xmlns="http://www.w3.org/2000/svg">
<g id="Group 195">
<circle id="Ellipse 8" cx="50" cy="50" r="49.5" fill="white" stroke="black"/>
<path id="Vector" d="M64.15 48C63.575 47.25 62.875 46.6 62.225 45.95C60.55 44.45 58.65 43.375 57.05 41.8C53.325 38.15 52.5 32.125 54.875 27.5C52.5 28.075 50.425 29.375 48.65 30.8C42.175 36 39.625 45.175 42.675 53.05C42.775 53.3 42.875 53.55 42.875 53.875C42.875 54.425 42.5 54.925 42 55.125C41.425 55.375 40.825 55.225 40.35 54.825C40.2073 54.707 40.0885 54.5627 40 54.4C37.175 50.825 36.725 45.7 38.625 41.6C34.45 45 32.175 50.75 32.5 56.175C32.65 57.425 32.8 58.675 33.225 59.925C33.575 61.425 34.25 62.925 35 64.25C37.7 68.575 42.375 71.675 47.4 72.3C52.75 72.975 58.475 72 62.575 68.3C67.15 64.15 68.75 57.5 66.4 51.8L66.075 51.15C65.55 50 64.15 48 64.15 48ZM56.25 63.75C55.55 64.35 54.4 65 53.5 65.25C50.7 66.25 47.9 64.85 46.25 63.2C49.225 62.5 51 60.3 51.525 58.075C51.95 56.075 51.15 54.425 50.825 52.5C50.525 50.65 50.575 49.075 51.25 47.35C51.725 48.3 52.225 49.25 52.825 50C54.75 52.5 57.775 53.6 58.425 57C58.525 57.35 58.575 57.7 58.575 58.075C58.65 60.125 57.75 62.375 56.25 63.75Z" fill="black"/>
</g>
</svg>
