<svg width="32" height="32" viewBox="0 0 32 32" fill="none" xmlns="http://www.w3.org/2000/svg">
<g id="dark=dark3">
<g id="Subtract">
<mask id="path-1-inside-1_98_691" fill="white">
<path fill-rule="evenodd" clip-rule="evenodd" d="M32 26.3395C30.6075 26.644 29.1521 26.8054 27.6544 26.8054C17.6063 26.8054 9.46069 19.5377 9.46069 10.5725C9.46069 6.53423 11.1134 2.84038 13.8482 0C5.89836 1.73829 0 8.13807 0 15.767C0 24.7322 8.14561 32 18.1937 32C23.7158 32 28.6633 29.805 32 26.3395Z"/>
</mask>
<path fill-rule="evenodd" clip-rule="evenodd" d="M32 26.3395C30.6075 26.644 29.1521 26.8054 27.6544 26.8054C17.6063 26.8054 9.46069 19.5377 9.46069 10.5725C9.46069 6.53423 11.1134 2.84038 13.8482 0C5.89836 1.73829 0 8.13807 0 15.767C0 24.7322 8.14561 32 18.1937 32C23.7158 32 28.6633 29.805 32 26.3395Z" fill="#FFF506"/>
<path d="M32 26.3395L32.7203 27.0331L35.0068 24.6584L31.7864 25.3626L32 26.3395ZM13.8482 0L14.5685 0.693592L16.855 -1.68108L13.6346 -0.976919L13.8482 0ZM31.7864 25.3626C30.4639 25.6517 29.0801 25.8054 27.6544 25.8054V27.8054C29.2241 27.8054 30.7511 27.6362 32.2136 27.3164L31.7864 25.3626ZM27.6544 25.8054C18.0483 25.8054 10.4607 18.8812 10.4607 10.5725H8.46069C8.46069 20.1942 17.1643 27.8054 27.6544 27.8054V25.8054ZM10.4607 10.5725C10.4607 6.81718 11.9956 3.36591 14.5685 0.693592L13.1278 -0.693592C10.2312 2.31485 8.46069 6.25127 8.46069 10.5725H10.4607ZM1 15.767C1 8.69086 6.48501 2.63364 14.0618 0.976919L13.6346 -0.976919C5.31171 0.842942 -1 7.58529 -1 15.767H1ZM18.1937 31C8.58762 31 1 24.0758 1 15.767H-1C-1 25.3887 7.7036 33 18.1937 33V31ZM31.2796 25.6459C28.1369 28.9099 23.452 31 18.1937 31V33C23.9796 33 29.1897 30.7 32.7203 27.0331L31.2796 25.6459Z" fill="black" mask="url(#path-1-inside-1_98_691)"/>
</g>
</g>
</svg>
