<svg width="120" height="110" viewBox="0 0 108 101" fill="none" xmlns="http://www.w3.org/2000/svg">
<g id="Group 186">
<g id="Group 17">
<path id="Polygon 3" d="M58.4344 31.9065C62.1522 25.9325 70.8478 25.9325 74.5656 31.9065L92.5039 60.7305C96.4421 67.0586 91.8917 75.25 84.4383 75.25H48.5617C41.1083 75.25 36.5579 67.0585 40.4961 60.7305L58.4344 31.9065Z" fill="#4DCB00" stroke="black"/>
<path id="Polygon 2" d="M29.917 19.2565C33.3507 12.0195 43.6493 12.0195 47.0829 19.2565L67.21 61.6778C70.2006 67.981 65.6037 75.25 58.627 75.25H18.373C11.3963 75.25 6.79943 67.981 9.79002 61.6778L29.917 19.2565Z" fill="#4DCB00" stroke="black"/>
</g>
<g id="Group 200">
<g id="Group 186_2">
<path id="Polygon 3_2" d="M58.4344 31.9065C62.1522 25.9325 70.8478 25.9325 74.5656 31.9065L92.5039 60.7305C96.4421 67.0586 91.8917 75.25 84.4383 75.25H48.5617C41.1083 75.25 36.5579 67.0585 40.4961 60.7305L58.4344 31.9065Z" fill="#4DCB00" stroke="black"/>
<path id="Polygon 2_2" d="M29.917 19.2565C33.3507 12.0195 43.6493 12.0195 47.0829 19.2565L67.21 61.6778C70.2006 67.981 65.6037 75.25 58.627 75.25H18.373C11.3963 75.25 6.79943 67.981 9.79002 61.6778L29.917 19.2565Z" fill="#4DCB00" stroke="black"/>
</g>
<g id="Group 184">
<path id="Union" fill-rule="evenodd" clip-rule="evenodd" d="M60 19H15V35.129H15.0917C15.031 35.2353 15 35.3429 15 35.4516C15 37.4113 25.0736 39 37.5 39C49.9264 39 60 37.4113 60 35.4516C60 35.3429 59.969 35.2353 59.9083 35.129H60V19Z" fill="black"/>
<path id="Polygon 18" d="M9.74005 19L38 10.522L66.2599 19L38 27.478L9.74005 19Z" fill="#585555" stroke="black"/>
<path id="Vector 62" d="M18 41V21.5L20 22.1422V41L19.1429 39L18 41Z" fill="#FFF506" stroke="black" stroke-width="0.5"/>
</g>
<g id="Group 185">
<circle id="Ellipse 62" cx="24" cy="54" r="9.5" fill="white" stroke="black"/>
<circle id="Ellipse 63" cx="54" cy="54" r="9.5" fill="white" stroke="black"/>
<line id="Line 120" x1="34" y1="54.5" x2="44" y2="54.5" stroke="black"/>
</g>
</g>
</g>
</svg>
