<svg width="33" height="32" viewBox="0 0 33 32" fill="none" xmlns="http://www.w3.org/2000/svg">
<g id="message" clip-path="url(#clip0_186_1970)">
<g id="Union">
<mask id="path-1-inside-1_186_1970" fill="white">
<path fill-rule="evenodd" clip-rule="evenodd" d="M7.78857 2.8407C5.02715 2.8407 2.78857 5.07927 2.78857 7.8407V19.6196C2.78857 22.0787 4.56393 24.1233 6.90287 24.5414L6.90287 32L19.2457 24.6196L19.2457 24.6196H27.0457C29.8071 24.6196 32.0457 22.381 32.0457 19.6196V7.8407C32.0457 5.07927 29.8071 2.8407 27.0457 2.8407H7.78857Z"/>
</mask>
<path fill-rule="evenodd" clip-rule="evenodd" d="M7.78857 2.8407C5.02715 2.8407 2.78857 5.07927 2.78857 7.8407V19.6196C2.78857 22.0787 4.56393 24.1233 6.90287 24.5414L6.90287 32L19.2457 24.6196L19.2457 24.6196H27.0457C29.8071 24.6196 32.0457 22.381 32.0457 19.6196V7.8407C32.0457 5.07927 29.8071 2.8407 27.0457 2.8407H7.78857Z" fill="white"/>
<path d="M6.90287 24.5414H7.90287V23.7043L7.07884 23.557L6.90287 24.5414ZM6.90287 32H5.90287V33.7631L7.41607 32.8583L6.90287 32ZM19.2457 24.6196L19.7589 25.4778L21.1627 24.6384L19.7757 23.7716L19.2457 24.6196ZM19.2457 24.6196V23.6196H15.7589L18.7157 25.4676L19.2457 24.6196ZM3.78857 7.8407C3.78857 5.63156 5.57944 3.8407 7.78857 3.8407V1.8407C4.47487 1.8407 1.78857 4.52699 1.78857 7.8407H3.78857ZM3.78857 19.6196V7.8407H1.78857V19.6196H3.78857ZM7.07884 23.557C5.20835 23.2226 3.78857 21.5859 3.78857 19.6196H1.78857C1.78857 22.5716 3.91951 25.0239 6.7269 25.5258L7.07884 23.557ZM7.90287 32L7.90287 24.5414H5.90287L5.90287 32H7.90287ZM18.7325 23.7613L6.38967 31.1417L7.41607 32.8583L19.7589 25.4778L18.7325 23.7613ZM18.7157 25.4676L18.7157 25.4676L19.7757 23.7716L19.7757 23.7716L18.7157 25.4676ZM27.0457 23.6196H19.2457V25.6196H27.0457V23.6196ZM31.0457 19.6196C31.0457 21.8287 29.2549 23.6196 27.0457 23.6196V25.6196C30.3594 25.6196 33.0457 22.9333 33.0457 19.6196H31.0457ZM31.0457 7.8407V19.6196H33.0457V7.8407H31.0457ZM27.0457 3.8407C29.2549 3.8407 31.0457 5.63156 31.0457 7.8407H33.0457C33.0457 4.52699 30.3594 1.8407 27.0457 1.8407V3.8407ZM7.78857 3.8407H27.0457V1.8407H7.78857V3.8407Z" fill="black" mask="url(#path-1-inside-1_186_1970)"/>
</g>
<g id="Union_2">
<mask id="path-3-inside-2_186_1970" fill="white">
<path fill-rule="evenodd" clip-rule="evenodd" d="M5.0459 0C2.28447 0 0.0458984 2.23858 0.0458984 5V16.7789C0.0458984 19.238 1.82125 21.2826 4.1602 21.7007L4.16019 29.1593L16.5031 21.7789L24.303 21.7789C27.0645 21.7789 29.303 19.5403 29.303 16.7789V5C29.303 2.23858 27.0645 0 24.303 0H5.0459Z"/>
</mask>
<path fill-rule="evenodd" clip-rule="evenodd" d="M5.0459 0C2.28447 0 0.0458984 2.23858 0.0458984 5V16.7789C0.0458984 19.238 1.82125 21.2826 4.1602 21.7007L4.16019 29.1593L16.5031 21.7789L24.303 21.7789C27.0645 21.7789 29.303 19.5403 29.303 16.7789V5C29.303 2.23858 27.0645 0 24.303 0H5.0459Z" fill="white"/>
<path d="M4.1602 21.7007H5.1602V20.8636L4.33616 20.7163L4.1602 21.7007ZM4.16019 29.1593H3.16019V30.9224L4.6734 30.0175L4.16019 29.1593ZM16.5031 21.7789V20.7789H16.2269L15.9899 20.9206L16.5031 21.7789ZM24.303 21.7789V22.7789V21.7789ZM1.0459 5C1.0459 2.79086 2.83676 1 5.0459 1V-1C1.73219 -1 -0.954102 1.68629 -0.954102 5H1.0459ZM1.0459 16.7789V5H-0.954102V16.7789H1.0459ZM4.33616 20.7163C2.46567 20.3819 1.0459 18.7452 1.0459 16.7789H-0.954102C-0.954102 19.7309 1.17684 22.1832 3.98423 22.6851L4.33616 20.7163ZM5.16019 29.1593L5.1602 21.7007H3.1602L3.16019 29.1593H5.16019ZM15.9899 20.9206L3.64699 28.301L4.6734 30.0175L17.0163 22.6371L15.9899 20.9206ZM24.303 20.7789L16.5031 20.7789V22.7789L24.303 22.7789V20.7789ZM28.303 16.7789C28.303 18.988 26.5122 20.7789 24.303 20.7789V22.7789C27.6167 22.7789 30.303 20.0926 30.303 16.7789H28.303ZM28.303 5V16.7789H30.303V5H28.303ZM24.303 1C26.5122 1 28.303 2.79086 28.303 5H30.303C30.303 1.68629 27.6167 -1 24.303 -1V1ZM5.0459 1H24.303V-1H5.0459V1Z" fill="black" mask="url(#path-3-inside-2_186_1970)"/>
</g>
</g>
<defs>
<clipPath id="clip0_186_1970">
<rect width="32" height="32" fill="white" transform="translate(0.0458984)"/>
</clipPath>
</defs>
</svg>
