<svg width="32" height="32" viewBox="0 0 32 32" fill="none" xmlns="http://www.w3.org/2000/svg">
<g id="notification">
<circle id="Ellipse 7" cx="16.3999" cy="26" r="5.5" fill="white" stroke="black"/>
<g id="Union">
<mask id="path-2-inside-1_186_1986" fill="white">
<path fill-rule="evenodd" clip-rule="evenodd" d="M30.3955 25.1967C30.3935 25.3314 30.3909 25.4659 30.3877 25.6H29.8595C27.093 27.513 21.9223 28.8 16 28.8C10.0777 28.8 4.90699 27.513 2.14052 25.6H1.61227C1.60905 25.4659 1.60646 25.3314 1.6045 25.1967C0.576631 24.3518 0 23.4028 0 22.4C0 21.297 0.697556 20.2592 1.92584 19.3533C3.32882 8.28918 9.09721 0 16 0C22.9028 0 28.6712 8.28918 30.0742 19.3533C31.3024 20.2592 32 21.297 32 22.4C32 23.4028 31.4234 24.3518 30.3955 25.1967Z"/>
</mask>
<path fill-rule="evenodd" clip-rule="evenodd" d="M30.3955 25.1967C30.3935 25.3314 30.3909 25.4659 30.3877 25.6H29.8595C27.093 27.513 21.9223 28.8 16 28.8C10.0777 28.8 4.90699 27.513 2.14052 25.6H1.61227C1.60905 25.4659 1.60646 25.3314 1.6045 25.1967C0.576631 24.3518 0 23.4028 0 22.4C0 21.297 0.697556 20.2592 1.92584 19.3533C3.32882 8.28918 9.09721 0 16 0C22.9028 0 28.6712 8.28918 30.0742 19.3533C31.3024 20.2592 32 21.297 32 22.4C32 23.4028 31.4234 24.3518 30.3955 25.1967Z" fill="white"/>
<path d="M30.3877 25.6V26.6H31.364L31.3874 25.624L30.3877 25.6ZM30.3955 25.1967L29.7605 24.4242L29.4023 24.7186L29.3956 25.1822L30.3955 25.1967ZM29.8595 25.6V24.6H29.5474L29.2907 24.7775L29.8595 25.6ZM2.14052 25.6L2.70927 24.7775L2.45259 24.6H2.14052V25.6ZM1.61227 25.6L0.612562 25.624L0.636 26.6H1.61227V25.6ZM1.6045 25.1967L2.6044 25.1822L2.59766 24.7186L2.23952 24.4242L1.6045 25.1967ZM1.92584 19.3533L2.5194 20.1581L2.86402 19.9039L2.91789 19.4791L1.92584 19.3533ZM30.0742 19.3533L29.0821 19.4791L29.136 19.9039L29.4806 20.1581L30.0742 19.3533ZM31.3874 25.624C31.3907 25.4867 31.3934 25.3491 31.3954 25.2113L29.3956 25.1822C29.3937 25.3137 29.3912 25.445 29.388 25.576L31.3874 25.624ZM29.8595 26.6H30.3877V24.6H29.8595V26.6ZM29.2907 24.7775C26.7636 26.525 21.8293 27.8 16 27.8V29.8C22.0152 29.8 27.4224 28.501 30.4282 26.4225L29.2907 24.7775ZM16 27.8C10.1707 27.8 5.23643 26.525 2.70927 24.7775L1.57177 26.4225C4.57756 28.501 9.98478 29.8 16 29.8V27.8ZM1.61227 26.6H2.14052V24.6H1.61227V26.6ZM0.604609 25.2113C0.606612 25.3491 0.609264 25.4867 0.612562 25.624L2.61199 25.576C2.60884 25.445 2.60631 25.3137 2.6044 25.1822L0.604609 25.2113ZM2.23952 24.4242C1.33607 23.6816 1 22.9887 1 22.4H-1C-1 23.817 -0.182807 25.022 0.969488 25.9692L2.23952 24.4242ZM1 22.4C1 21.7528 1.41011 20.9762 2.5194 20.1581L1.33227 18.5485C-0.0149938 19.5422 -1 20.8412 -1 22.4H1ZM16 -1C12.1154 -1 8.68044 1.33312 6.08812 4.94446C3.49065 8.56296 1.65137 13.5685 0.933781 19.2275L2.91789 19.4791C3.60328 14.074 5.34969 9.40285 7.71286 6.11074C10.0812 2.81147 12.9818 1 16 1V-1ZM31.0662 19.2275C30.3486 13.5685 28.5094 8.56296 25.9119 4.94446C23.3196 1.33312 19.8846 -1 16 -1V1C19.0182 1 21.9188 2.81147 24.2871 6.11074C26.6503 9.40285 28.3967 14.074 29.0821 19.4791L31.0662 19.2275ZM29.4806 20.1581C30.5899 20.9762 31 21.7528 31 22.4H33C33 20.8412 32.015 19.5422 30.6677 18.5485L29.4806 20.1581ZM31 22.4C31 22.9887 30.6639 23.6816 29.7605 24.4242L31.0305 25.9692C32.1828 25.022 33 23.817 33 22.4H31Z" fill="black" mask="url(#path-2-inside-1_186_1986)"/>
</g>
</g>
</svg>
