<svg width="100" height="100" viewBox="0 0 100 100" fill="none" xmlns="http://www.w3.org/2000/svg">
<g id="Group 197">
<circle id="Ellipse 8" cx="50" cy="50" r="49.5" fill="white" stroke="black"/>
<path id="Vector" d="M32.9113 21.8569V26.0356C34.8381 27.1953 36.0761 29.3767 36.0761 31.7691C36.0761 33.279 35.5823 34.7041 34.7346 35.8423C35.1732 35.9909 35.634 36.1561 36.0194 36.3017L51.5068 33.7926L52.2559 39.8324L38.1107 42.3896C38.0016 44.1804 37.8006 45.9426 37.4412 48.0686H80V21.8569H32.9113ZM29.747 27.1432C27.6464 27.1432 25.6962 29.0977 25.6962 31.7692C25.6962 34.4406 27.6464 36.3949 29.747 36.3949C31.8476 36.3949 33.7979 34.4406 33.7979 31.7692C33.7979 29.0977 31.8476 27.1432 29.747 27.1432ZM49.5058 36.1331L35.7601 38.36C33.9576 37.743 35.1328 38.0257 33.0425 37.422C32.0962 38.0243 30.9755 38.3771 29.747 38.3771C28.6584 38.3771 27.6546 38.0992 26.7815 37.6171C25.6941 38.0097 24.5467 38.5081 23.5238 39.0107C21.8792 39.8189 20.521 40.4657 20 40.7765V55.117H22.5321V42.8922H24.8101V71.8569H28.608V53.2445H30.886V71.8569H34.1776V52.932L34.1971 52.8412C35.4014 47.2642 35.7905 44.3188 35.901 40.7647L49.7692 38.2574L49.5058 36.1331ZM37.0815 50.051C36.961 50.6767 36.8295 51.3329 36.6833 52.0329H78.101V50.051H37.0815ZM43.9241 55.3368C41.8235 55.3368 39.8732 57.2913 39.8732 59.9628C39.8732 61.9669 40.9707 63.5674 42.4061 64.2419C42.8617 64.0589 43.3532 63.9439 43.8846 63.9279C44.4711 63.9103 45.0213 64.0124 45.5367 64.1944C46.9251 63.4949 47.975 61.9224 47.975 59.9628C47.975 57.2913 46.0247 55.3368 43.9241 55.3368ZM58.1012 55.3368C56.0006 55.3368 54.0503 57.2913 54.0503 59.9628C54.0503 61.9669 55.1478 63.5674 56.5832 64.2419C57.0388 64.0589 57.5303 63.9439 58.0617 63.9279C58.6482 63.9103 59.1984 64.0124 59.7138 64.1944C61.1022 63.4949 62.152 61.9224 62.152 59.9628C62.152 57.2913 60.2018 55.3368 58.1012 55.3368ZM72.2783 55.3368C70.1777 55.3368 68.2274 57.2913 68.2274 59.9628C68.2274 61.9669 69.3249 63.5674 70.7603 64.2419C71.2159 64.0589 71.7074 63.9439 72.2388 63.9279C72.8252 63.9103 73.3755 64.0124 73.8909 64.1944C75.2793 63.4949 76.3291 61.9224 76.3291 59.9628C76.3291 57.2913 74.3789 55.3368 72.2783 55.3368ZM43.9636 65.909C43.477 65.9236 42.8361 66.2317 42.1535 66.8765C41.4707 67.5213 40.7996 68.4458 40.2389 69.3831C39.704 70.2773 39.2758 71.1628 38.9655 71.8569H49.7678C49.383 71.1481 48.8643 70.2546 48.232 69.3557C47.5614 68.4022 46.775 67.4683 45.9956 66.8275C45.2162 66.1866 44.5019 65.8928 43.9636 65.909ZM58.1407 65.909C57.6541 65.9236 57.0132 66.2317 56.3306 66.8765C55.6478 67.5213 54.9767 68.4458 54.416 69.3831C53.8811 70.2773 53.4529 71.1628 53.1426 71.8569H63.9449C63.5601 71.1481 63.0414 70.2546 62.4091 69.3557C61.7385 68.4022 60.9521 67.4683 60.1727 66.8275C59.3933 66.1866 58.6789 65.8928 58.1407 65.909ZM72.3178 65.909C71.8312 65.9236 71.1903 66.2317 70.5077 66.8765C69.8249 67.5213 69.1538 68.4458 68.5931 69.3831C68.0582 70.2773 67.63 71.1628 67.3197 71.8569H78.122C77.7372 71.1481 77.2185 70.2546 76.5862 69.3557C75.9156 68.4022 75.1291 67.4683 74.3498 66.8275C73.5704 66.1866 72.856 65.8928 72.3178 65.909Z" fill="black"/>
</g>
</svg>
