<svg width="100" height="100" viewBox="0 0 100 100" fill="none" xmlns="http://www.w3.org/2000/svg">
<g id="Frame 189">
<g id="Group 24">
<circle id="Ellipse 12" cx="50" cy="50" r="49.5" fill="white" stroke="black"/>
<path id="Star 5" d="M90 42L92.0206 48.2188H98.5595L93.2694 52.0623L95.2901 58.2812L90 54.4377L84.7099 58.2812L86.7306 52.0623L81.4405 48.2188H87.9794L90 42Z" fill="#FFE600"/>
<path id="Star 4" d="M70 42L72.0206 48.2188H78.5595L73.2694 52.0623L75.2901 58.2812L70 54.4377L64.7099 58.2812L66.7306 52.0623L61.4405 48.2188H67.9794L70 42Z" fill="#FFE600"/>
<path id="Star 3" d="M50 42L52.0206 48.2188H58.5595L53.2694 52.0623L55.2901 58.2812L50 54.4377L44.7099 58.2812L46.7306 52.0623L41.4405 48.2188H47.9794L50 42Z" fill="#FFE600"/>
<path id="Star 2" d="M30 42L32.0206 48.2188H38.5595L33.2694 52.0623L35.2901 58.2812L30 54.4377L24.7099 58.2812L26.7306 52.0623L21.4405 48.2188H27.9794L30 42Z" fill="#FFE600"/>
<path id="Star 1" d="M10 42L12.0206 48.2188H18.5595L13.2694 52.0623L15.2901 58.2812L10 54.4377L4.70993 58.2812L6.73056 52.0623L1.44049 48.2188H7.97937L10 42Z" fill="#FFE600"/>
</g>
</g>
</svg>
