<svg width="100" height="100" viewBox="0 0 100 100" fill="none" xmlns="http://www.w3.org/2000/svg">
<g id="Group 199">
<circle id="Ellipse 8" cx="50" cy="50" r="49.5" fill="white" stroke="black"/>
<path id="Vector" d="M49.9999 50C57.8879 50 64.2808 44.4043 64.2808 37.5C64.2808 30.5957 57.8879 25 49.9999 25C42.1119 25 35.719 30.5957 35.719 37.5C35.719 44.4043 42.1119 50 49.9999 50ZM60.6883 53.1836L55.3552 71.875L51.785 58.5938L55.3552 53.125H44.6446L48.2148 58.5938L44.6446 71.875L39.3115 53.1836C31.3566 53.5156 25.0083 59.209 25.0083 66.25V70.3125C25.0083 72.9004 27.407 75 30.3636 75H69.6362C72.5928 75 74.9915 72.9004 74.9915 70.3125V66.25C74.9915 59.209 68.6432 53.5156 60.6883 53.1836Z" fill="black"/>
</g>
</svg>
