<svg width="100" height="100" viewBox="0 0 100 100" fill="none" xmlns="http://www.w3.org/2000/svg">
<g id="Group 193">
<circle id="Ellipse 10" cx="50" cy="50" r="49.5" fill="white" stroke="black"/>
<rect id="Rectangle 84" x="23.5" y="28.5" width="58" height="46" fill="white" stroke="black"/>
<path id="Union" fill-rule="evenodd" clip-rule="evenodd" d="M74.7075 72.5748L52.3069 52.7669L54.8638 83.6514L62.9002 79.1656L67.695 88.9051L71.313 86.8857L66.5181 77.1461L74.7075 72.5748Z" fill="#BFBFBF"/>
<path id="Union_2" fill-rule="evenodd" clip-rule="evenodd" d="M73.4326 73.0297L51.032 53.2217L53.5889 84.1062L61.6253 79.6204L66.4201 89.3599L70.0381 87.3405L65.2432 77.6009L73.4326 73.0297Z" fill="#8F8F8F"/>
<line id="Line 29" x1="40.9029" y1="58.0637" x2="48.7506" y2="56.5103" stroke="black"/>
<line id="Line 30" x1="41.2443" y1="48.5638" x2="48.2243" y2="52.4727" stroke="black"/>
<line id="Line 31" x1="48.4145" y1="42.4943" x2="50.3255" y2="50.2627" stroke="black"/>
<line id="Line 32" x1="57.5386" y1="42.193" x2="54.4504" y2="49.5729" stroke="black"/>
<line id="Line 33" x1="56.7606" y1="52.5611" x2="63.7837" y2="48.7302" stroke="black"/>
</g>
</svg>
